<svg width="196" height="56" viewBox="0 0 196 56" fill="none" xmlns="http://www.w3.org/2000/svg">
<g filter="url(#filter0_d_3_4179)">
<path d="M5.50195 18.79L15.2866 42.5781L22.8534 24.1074L30.4201 5.63672" stroke="#9783E9" stroke-width="2"/>
<rect x="31.4202" y="12.5737" width="136.434" height="34.2817" rx="17.1409" stroke="#9783E9" stroke-width="2"/>
<path d="M46.1728 37.6404L46.4558 36.6813L46.0319 36.5562L45.6541 36.7855L46.1728 37.6404ZM58.7201 41.3437L58.437 42.3028L58.7259 42.3881L59.0138 42.2996L58.7201 41.3437ZM84.8322 33.3199L85.0366 32.341L84.7846 32.2884L84.5384 32.364L84.8322 33.3199ZM105.518 37.6404L105.314 38.6193L105.767 38.7139L106.132 38.4301L105.518 37.6404ZM124.848 22.6215L125.305 21.7323L124.738 21.4405L124.234 21.8319L124.848 22.6215ZM140.447 30.6453L139.99 31.5346L140.286 31.6869L140.614 31.6313L140.447 30.6453ZM169.612 25.7076L169.779 26.6936L170.151 26.6306L170.388 26.3372L169.612 25.7076ZM190.614 0.914892C190.557 0.365611 190.065 -0.0330395 189.515 0.0244814L180.564 0.961838C180.015 1.01936 179.616 1.51127 179.674 2.06055C179.731 2.60983 180.223 3.00848 180.773 2.95096L188.729 2.11776L189.562 10.0742C189.62 10.6235 190.112 11.0222 190.661 10.9647C191.21 10.9071 191.609 10.4152 191.551 9.86595L190.614 0.914892ZM38.5526 43.4331L46.6915 38.4954L45.6541 36.7855L37.5152 41.7232L38.5526 43.4331ZM45.8897 38.5995L58.437 42.3028L59.0032 40.3846L46.4558 36.6813L45.8897 38.5995ZM59.0138 42.2996L85.1259 34.2758L84.5384 32.364L58.4264 40.3878L59.0138 42.2996ZM84.6277 34.2988L105.314 38.6193L105.723 36.6615L85.0366 32.341L84.6277 34.2988ZM106.132 38.4301L125.462 23.4112L124.234 21.8319L104.905 36.8508L106.132 38.4301ZM124.391 23.5108L139.99 31.5346L140.905 29.7561L125.305 21.7323L124.391 23.5108ZM140.614 31.6313L169.779 26.6936L169.445 24.7216L140.281 29.6594L140.614 31.6313ZM170.388 26.3372L190.396 1.64866L188.843 0.389427L168.835 25.078L170.388 26.3372Z" fill="#9783E9"/>
</g>
<defs>
<filter id="filter0_d_3_4179" x="0.577148" y="0.019043" width="194.98" height="55.8364" filterUnits="userSpaceOnUse" color-interpolation-filters="sRGB">
<feFlood flood-opacity="0" result="BackgroundImageFix"/>
<feColorMatrix in="SourceAlpha" type="matrix" values="0 0 0 0 0 0 0 0 0 0 0 0 0 0 0 0 0 0 127 0" result="hardAlpha"/>
<feOffset dy="4"/>
<feGaussianBlur stdDeviation="2"/>
<feComposite in2="hardAlpha" operator="out"/>
<feColorMatrix type="matrix" values="0 0 0 0 0 0 0 0 0 0 0 0 0 0 0 0 0 0 0.25 0"/>
<feBlend mode="normal" in2="BackgroundImageFix" result="effect1_dropShadow_3_4179"/>
<feBlend mode="normal" in="SourceGraphic" in2="effect1_dropShadow_3_4179" result="shape"/>
</filter>
</defs>
</svg>
